<svg width="33" height="33" viewBox="0 0 33 33" fill="none" xmlns="http://www.w3.org/2000/svg">
<path d="M30.25 6.66856V23.0173C30.25 24.3511 29.1637 25.5748 27.83 25.7398L27.4037 25.7948C25.1487 26.0973 21.9725 27.0323 19.415 28.1048C18.5212 28.4761 17.5312 27.8023 17.5312 26.8261V7.69981C17.5312 7.19106 17.82 6.72356 18.2737 6.47606C20.79 5.11481 24.5988 3.90481 27.1838 3.68481H27.2662C28.9162 3.68481 30.25 5.01856 30.25 6.66856Z" fill="black"/>
<path d="M14.7263 6.47606C12.2101 5.11481 8.40133 3.90481 5.81633 3.68481H5.72008C4.07008 3.68481 2.73633 5.01856 2.73633 6.66856V23.0173C2.73633 24.3511 3.82258 25.5748 5.15633 25.7398L5.58258 25.7948C7.83758 26.0973 11.0138 27.0323 13.5713 28.1048C14.4651 28.4761 15.4551 27.8023 15.4551 26.8261V7.69981C15.4551 7.17731 15.1801 6.72356 14.7263 6.47606ZM6.87508 10.6423H9.96883C10.5326 10.6423 11.0001 11.1098 11.0001 11.6736C11.0001 12.2511 10.5326 12.7048 9.96883 12.7048H6.87508C6.31133 12.7048 5.84383 12.2511 5.84383 11.6736C5.84383 11.1098 6.31133 10.6423 6.87508 10.6423ZM11.0001 16.8298H6.87508C6.31133 16.8298 5.84383 16.3761 5.84383 15.7986C5.84383 15.2348 6.31133 14.7673 6.87508 14.7673H11.0001C11.5638 14.7673 12.0313 15.2348 12.0313 15.7986C12.0313 16.3761 11.5638 16.8298 11.0001 16.8298Z" fill="black"/>
</svg>
